<svg xmlns="http://www.w3.org/2000/svg" width="338.85" height="63.69" viewBox="0 0 338.85 63.69"><path d="M251.49,15.54,244.93,9c-6.07-6.07.49-12.63,6.56-6.57,6-5.95,12.52.61,6.56,6.57Z" fill="#fd3a59"/><path d="M28.86,9h5.86V50H28.86V32.14h-23V50H0V9H5.86v17.7h23Z" fill="#1abc9c"/><path d="M66,36.94H47a8.8,8.8,0,0,0,2.59,6.15,8.55,8.55,0,0,0,6.17,2.29,16.1,16.1,0,0,0,9.73-3.28v5.21a17.71,17.71,0,0,1-4.88,2.35,20.73,20.73,0,0,1-5.67.7,12.74,12.74,0,0,1-7.21-1.85,13.52,13.52,0,0,1-4.41-5,15.23,15.23,0,0,1-1.65-7.22,14.31,14.31,0,0,1,3.49-10,11.62,11.62,0,0,1,9-3.85,10.66,10.66,0,0,1,8.55,3.75Q66,30,66,36.27ZM47.14,33.75H60.7a7.41,7.41,0,0,0-1.9-4.92,6.09,6.09,0,0,0-4.57-1.73,6.53,6.53,0,0,0-4.7,1.73A8.55,8.55,0,0,0,47.14,33.75Z" fill="#1abc9c"/><path d="M88.68,33.75V45.2c0,.92.31,1.38.94,1.38a6.48,6.48,0,0,0,3-1.44V48.4A17.23,17.23,0,0,1,89.72,50a6.39,6.39,0,0,1-2.3.43q-3.42,0-4-2.7a11.61,11.61,0,0,1-7.24,2.64,6.39,6.39,0,0,1-6.56-6.53,6.59,6.59,0,0,1,1.83-4.56,12.39,12.39,0,0,1,5.2-3.18l6.83-2.34V32.31q0-4.86-4.87-4.86-4.36,0-8.49,4.51V26.13q3.11-3.66,8.93-3.66a10.36,10.36,0,0,1,7,2.28A7.35,7.35,0,0,1,87.6,26.7a7,7,0,0,1,.89,2.43A35.49,35.49,0,0,1,88.68,33.75ZM83.44,44.62v-8L79.86,38A12.1,12.1,0,0,0,76,40.18,3.94,3.94,0,0,0,76,45.64a3.81,3.81,0,0,0,2.77,1.06A6.75,6.75,0,0,0,83.44,44.62Z" fill="#1abc9c"/><path d="M97.47,9h5.33V50H97.47Z" fill="#1abc9c"/><path d="M106.73,27.27l10-9.84V23h8.52v4.8h-8.52V41q0,4.62,3.84,4.62a11.89,11.89,0,0,0,6.06-1.9v5a13.5,13.5,0,0,1-6.71,1.73,8.91,8.91,0,0,1-6.09-2.14,6,6,0,0,1-1.26-1.45,8,8,0,0,1-.84-2.11,24.23,24.23,0,0,1-.33-5V27.8h-4.69Z" fill="#1abc9c"/><path d="M130.37,9h5.33V26.54A10.33,10.33,0,0,1,144,22.47a8.89,8.89,0,0,1,4.84,1.35A8.15,8.15,0,0,1,152,27.54a18.44,18.44,0,0,1,1,7.06V50h-5.34V33.28a7.35,7.35,0,0,0-1.45-4.76,4.66,4.66,0,0,0-3.82-1.8,6.51,6.51,0,0,0-3.31.9,15.44,15.44,0,0,0-3.43,3V50h-5.33Z" fill="#1abc9c"/><path d="M174.93,23h6l-19.1,40.69h-5.95L165,44.16,154.6,23h6.08L168,38.22Z" fill="#1abc9c"/><path d="M234.61,9h5.48V50H234.2V18.1L221.62,33.92h-1.09L207.8,18.1V50h-5.86V9h5.55l13.6,16.81Z" fill="#1abc9c"/><rect x="248.29" y="23" width="5.33" height="26.95" fill="#1abc9c"/><path d="M266.66,23v3.42a10.73,10.73,0,0,1,8.12-4,8.88,8.88,0,0,1,4.68,1.3,8.45,8.45,0,0,1,3.3,3.58q1.13,2.26,1.13,7.19V50h-5.34V34.6c0-2.76-.42-4.72-1.26-5.91s-2.24-1.77-4.21-1.77q-3.78,0-6.42,3.78V50h-5.45V23Z" fill="#1abc9c"/><path d="M309.32,9h5.36V50h-11.4a12.46,12.46,0,0,1-9.53-3.78q-3.57-3.78-3.56-10.14a13.44,13.44,0,0,1,3.73-9.78,12.73,12.73,0,0,1,9.54-3.84,17.42,17.42,0,0,1,5.86,1.14Zm0,36.36V28.3a11.06,11.06,0,0,0-5-1.26,8.15,8.15,0,0,0-6.35,2.61,10.07,10.07,0,0,0-2.35,7,9.18,9.18,0,0,0,2.05,6.41,6.35,6.35,0,0,0,2.6,1.82,17.73,17.73,0,0,0,5,.47Z" fill="#1abc9c"/><path d="M320.6,48V42.27a24.28,24.28,0,0,0,4.61,2.57,10.85,10.85,0,0,0,4,1,5,5,0,0,0,2.87-.82,2.36,2.36,0,0,0,1.2-2,2.64,2.64,0,0,0-.77-1.94,18.12,18.12,0,0,0-3.36-2.25Q324,36,322.37,33.94a7,7,0,0,1-1.6-4.44,6.24,6.24,0,0,1,2.42-5.07,9.55,9.55,0,0,1,6.22-2,17.18,17.18,0,0,1,8.12,2.22V30c-3.16-1.92-5.75-2.87-7.76-2.87a4.33,4.33,0,0,0-2.51.66,2,2,0,0,0-.95,1.74,2.52,2.52,0,0,0,.86,1.79,14.91,14.91,0,0,0,3,2.05l1.91,1.09c4.49,2.53,6.74,5.35,6.74,8.43a6.7,6.7,0,0,1-2.6,5.43,10.14,10.14,0,0,1-6.66,2.13,15.93,15.93,0,0,1-4.28-.52A28.27,28.27,0,0,1,320.6,48Z" fill="#1abc9c"/></svg>